<svg width="540" height="526" viewBox="0 0 540 526" fill="none" xmlns="http://www.w3.org/2000/svg">
<path fill-rule="evenodd" clip-rule="evenodd" d="M473 448.025C514.712 400.5 540 338.203 540 270C540 120.883 419.117 0 270 0C120.883 0 0 120.883 0 270C0 338.746 25.6928 401.492 68 449.158V210C68 178.846 90.7101 153.5 118.625 153.5H139.176C126.187 178.466 118.625 207.36 118.625 238.25C118.625 331.713 186.755 407.75 270.5 407.75C354.245 407.75 422.375 331.713 422.375 238.25C422.375 207.36 414.813 178.466 401.824 153.5H422.375C450.29 153.5 473 178.846 473 210V448.025ZM397.062 238.25C397.062 316.264 340.402 379.5 270.5 379.5C200.598 379.5 143.938 316.264 143.938 238.25C143.938 160.236 200.598 97 270.5 97C340.402 97 397.062 160.236 397.062 238.25ZM296.825 176.188L270.263 245.365C252.908 245.516 238.859 261.221 238.859 280.625C238.859 300.126 253.026 315.938 270.5 315.938C287.974 315.938 302.141 300.126 302.141 280.625C302.141 271.311 298.763 262.969 293.479 256.648L320.113 187.303C322.857 180.143 319.883 171.836 313.46 168.764C307.061 165.665 299.594 168.976 296.825 176.188Z" fill="#329F3F"/>
<g clip-path="url(#clip0_1_18)">
<path d="M406.5 170.75H388.03C399.703 193.175 406.5 219.129 406.5 246.875C406.5 330.827 345.267 399.125 270 399.125C194.733 399.125 133.5 330.827 133.5 246.875C133.5 219.129 140.297 193.175 151.97 170.75H133.5C108.411 170.75 88 193.516 88 221.5V475.25C88 503.234 108.411 526 133.5 526H406.5C431.589 526 452 503.234 452 475.25V221.5C452 193.516 431.589 170.75 406.5 170.75ZM270 373.75C332.826 373.75 383.75 316.95 383.75 246.875C383.75 176.8 332.826 120 270 120C207.174 120 156.25 176.8 156.25 246.875C156.25 316.95 207.174 373.75 270 373.75ZM269.787 253.266L293.66 191.129C296.148 184.651 302.86 181.677 308.611 184.46C314.384 187.22 317.057 194.682 314.59 201.113L290.653 263.4C295.402 269.078 298.438 276.572 298.438 284.938C298.438 302.454 285.705 316.656 270 316.656C254.295 316.656 241.562 302.454 241.562 284.938C241.562 267.508 254.189 253.401 269.787 253.266Z" fill="white"/>
</g>
<defs>
<clipPath id="clip0_1_18">
<rect width="364" height="406" fill="white" transform="translate(88 120)"/>
</clipPath>
</defs>
</svg>
